<?xml version="1.0" encoding="UTF-8" standalone="no"?>
<svg width="1500px" height="531px" viewBox="0 0 1500 531" version="1.1" xmlns="http://www.w3.org/2000/svg" xmlns:xlink="http://www.w3.org/1999/xlink">
    <!-- Generator: Sketch 50.2 (55047) - http://www.bohemiancoding.com/sketch -->
    <title>cover</title>
    <desc>Created with Sketch.</desc>
    <defs>
        <rect id="path-1" x="0" y="0" width="1500" height="538"></rect>
        <rect id="path-3" x="0" y="0" width="1500" height="538"></rect>
        <polygon id="path-5" points="0 0 1861 0 1861 814.772825 0 814.772825"></polygon>
    </defs>
    <g id="Homepage-Desktop-and-Navigation" stroke="none" stroke-width="1" fill="none" fill-rule="evenodd">
        <g id="Alight-Menu-/-Research-&amp;-Highlights" transform="translate(-125.000000, -149.000000)">
            <g id="Group-2" transform="translate(125.000000, -730.000000)">
                <g id="cover" transform="translate(0.000000, 879.000000)">
                    <mask id="mask-2" fill="white">
                        <use xlink:href="#path-1"></use>
                    </mask>
                    <g id="Mask"></g>
                    <mask id="mask-4" fill="white">
                        <use xlink:href="#path-3"></use>
                    </mask>
                    <use id="Mask" fill="#E8E8E8" xlink:href="#path-3"></use>
                    <g id="Group" mask="url(#mask-4)">
                        <g transform="translate(1317.500000, 315.386413) rotate(180.000000) translate(-1317.500000, -315.386413) translate(387.000000, -92.113587)">
                            <mask id="mask-6" fill="white">
                                <use xlink:href="#path-5"></use>
                            </mask>
                            <g id="Clip-2" stroke="none" fill="none"></g>
                            <path d="M930.5,405.837245 C680.994261,405.837245 471.364753,232.524111 415.311613,0 L0,0 C60.9687755,459.209051 454.87503,814.772825 930.5,814.772825 C1406.12497,814.772825 1800.03122,459.209051 1861,0 L1445.67349,0 C1389.63525,232.524111 1180.00574,405.837245 930.5,405.837245" id="Fill-1" stroke="none" fill-opacity="0.1" fill="#000000" fill-rule="evenodd" mask="url(#mask-6)"></path>
                        </g>
                    </g>
                </g>
            </g>
        </g>
    </g>
</svg>